<mxfile host="app.diagrams.net" agent="Mozilla/5.0 (Windows NT 10.0; Win64; x64) AppleWebKit/537.36 (KHTML, like Gecko) Chrome/137.0.0.0 Safari/537.36" version="27.1.1">
  <diagram id="C5RBs43oDa-KdzZeNtuy" name="Page-1">
    <mxGraphModel dx="2253" dy="777" grid="1" gridSize="10" guides="1" tooltips="1" connect="1" arrows="1" fold="1" page="1" pageScale="1" pageWidth="827" pageHeight="1169" math="0" shadow="0">
      <root>
        <mxCell id="WIyWlLk6GJQsqaUBKTNV-0" />
        <mxCell id="WIyWlLk6GJQsqaUBKTNV-1" parent="WIyWlLk6GJQsqaUBKTNV-0" />
        <mxCell id="2p8dS12ZbN8FqSJUtTzd-14" value="personnel" style="swimlane;fontStyle=2;align=center;verticalAlign=top;childLayout=stackLayout;horizontal=1;startSize=26;horizontalStack=0;resizeParent=1;resizeLast=0;collapsible=1;marginBottom=0;rounded=0;shadow=0;strokeWidth=1;" parent="WIyWlLk6GJQsqaUBKTNV-1" vertex="1">
          <mxGeometry x="414" y="110" width="230" height="530" as="geometry">
            <mxRectangle x="230" y="140" width="160" height="26" as="alternateBounds" />
          </mxGeometry>
        </mxCell>
        <mxCell id="2p8dS12ZbN8FqSJUtTzd-15" value="  + String _id&#xa;  + String matricule&#xa;  + String nom&#xa;  + String prenom&#xa;  + String email&#xa;  + String motDePasse&#xa;  + String code_soc&#xa;  + String confirmationMotDePasse&#xa;  + String date_naiss&#xa;  + String telephone&#xa;  + String CIN&#xa;  + String sexe&#xa;  + int nbr_enfants&#xa;  + String situation&#xa;  + String date_embauche&#xa;  + boolean active&#xa;  + String role&#xa;  + int failedLoginAttempts&#xa;  + boolean accountLocked&#xa;  + String lockReason&#xa;  + Date lockTime&#xa;  &#xa;" style="text;align=left;verticalAlign=top;spacingLeft=4;spacingRight=4;overflow=hidden;rotatable=0;points=[[0,0.5],[1,0.5]];portConstraint=eastwest;rounded=0;shadow=0;html=0;strokeWidth=1;fontSize=14;fontStyle=0" parent="2p8dS12ZbN8FqSJUtTzd-14" vertex="1">
          <mxGeometry y="26" width="230" height="394" as="geometry" />
        </mxCell>
        <mxCell id="2p8dS12ZbN8FqSJUtTzd-16" value="" style="line;html=1;strokeWidth=1;align=left;verticalAlign=middle;spacingTop=-1;spacingLeft=3;spacingRight=3;rotatable=0;labelPosition=right;points=[];portConstraint=eastwest;" parent="2p8dS12ZbN8FqSJUtTzd-14" vertex="1">
          <mxGeometry y="420" width="230" height="8" as="geometry" />
        </mxCell>
        <mxCell id="2p8dS12ZbN8FqSJUtTzd-17" value="+S&#39;authentifier()" style="text;align=left;verticalAlign=top;spacingLeft=4;spacingRight=4;overflow=hidden;rotatable=0;points=[[0,0.5],[1,0.5]];portConstraint=eastwest;" parent="2p8dS12ZbN8FqSJUtTzd-14" vertex="1">
          <mxGeometry y="428" width="230" height="26" as="geometry" />
        </mxCell>
        <mxCell id="2p8dS12ZbN8FqSJUtTzd-24" value="+ConsulterProfil()" style="text;align=left;verticalAlign=top;spacingLeft=4;spacingRight=4;overflow=hidden;rotatable=0;points=[[0,0.5],[1,0.5]];portConstraint=eastwest;" parent="2p8dS12ZbN8FqSJUtTzd-14" vertex="1">
          <mxGeometry y="454" width="230" height="24" as="geometry" />
        </mxCell>
        <mxCell id="2p8dS12ZbN8FqSJUtTzd-25" value="+ModifierMotDePasse" style="text;align=left;verticalAlign=top;spacingLeft=4;spacingRight=4;overflow=hidden;rotatable=0;points=[[0,0.5],[1,0.5]];portConstraint=eastwest;" parent="2p8dS12ZbN8FqSJUtTzd-14" vertex="1">
          <mxGeometry y="478" width="230" height="24" as="geometry" />
        </mxCell>
        <mxCell id="2p8dS12ZbN8FqSJUtTzd-26" value="+ConsulterTableauDeBord" style="text;align=left;verticalAlign=top;spacingLeft=4;spacingRight=4;overflow=hidden;rotatable=0;points=[[0,0.5],[1,0.5]];portConstraint=eastwest;" parent="2p8dS12ZbN8FqSJUtTzd-14" vertex="1">
          <mxGeometry y="502" width="230" height="24" as="geometry" />
        </mxCell>
        <mxCell id="2p8dS12ZbN8FqSJUtTzd-28" value="Succursale_Société" style="swimlane;fontStyle=1;align=center;verticalAlign=top;childLayout=stackLayout;horizontal=1;startSize=26;horizontalStack=0;resizeParent=1;resizeParentMax=0;resizeLast=0;collapsible=1;marginBottom=0;whiteSpace=wrap;html=1;" parent="WIyWlLk6GJQsqaUBKTNV-1" vertex="1">
          <mxGeometry x="70" y="450" width="180" height="192" as="geometry" />
        </mxCell>
        <mxCell id="2p8dS12ZbN8FqSJUtTzd-29" value="&lt;div&gt;&lt;font style=&quot;font-size: 14px;&quot;&gt;&amp;nbsp; + String _id&lt;/font&gt;&lt;/div&gt;&lt;div&gt;&lt;font style=&quot;font-size: 14px;&quot;&gt;&amp;nbsp; + String societeName&lt;/font&gt;&lt;/div&gt;&lt;div&gt;&lt;font style=&quot;font-size: 14px;&quot;&gt;&amp;nbsp; + String societeCodeSoc&lt;/font&gt;&lt;/div&gt;&lt;div&gt;&lt;font style=&quot;font-size: 14px;&quot;&gt;&amp;nbsp; + String emplacement&lt;/font&gt;&lt;/div&gt;" style="text;strokeColor=none;fillColor=none;align=left;verticalAlign=top;spacingLeft=4;spacingRight=4;overflow=hidden;rotatable=0;points=[[0,0.5],[1,0.5]];portConstraint=eastwest;whiteSpace=wrap;html=1;" parent="2p8dS12ZbN8FqSJUtTzd-28" vertex="1">
          <mxGeometry y="26" width="180" height="74" as="geometry" />
        </mxCell>
        <mxCell id="2p8dS12ZbN8FqSJUtTzd-30" value="" style="line;strokeWidth=1;fillColor=none;align=left;verticalAlign=middle;spacingTop=-1;spacingLeft=3;spacingRight=3;rotatable=0;labelPosition=right;points=[];portConstraint=eastwest;strokeColor=inherit;" parent="2p8dS12ZbN8FqSJUtTzd-28" vertex="1">
          <mxGeometry y="100" width="180" height="8" as="geometry" />
        </mxCell>
        <mxCell id="2p8dS12ZbN8FqSJUtTzd-31" value="+AjouterSociete()" style="text;strokeColor=none;fillColor=none;align=left;verticalAlign=top;spacingLeft=4;spacingRight=4;overflow=hidden;rotatable=0;points=[[0,0.5],[1,0.5]];portConstraint=eastwest;whiteSpace=wrap;html=1;" parent="2p8dS12ZbN8FqSJUtTzd-28" vertex="1">
          <mxGeometry y="108" width="180" height="28" as="geometry" />
        </mxCell>
        <mxCell id="2p8dS12ZbN8FqSJUtTzd-32" value="+ModifierSociete()" style="text;strokeColor=none;fillColor=none;align=left;verticalAlign=top;spacingLeft=4;spacingRight=4;overflow=hidden;rotatable=0;points=[[0,0.5],[1,0.5]];portConstraint=eastwest;whiteSpace=wrap;html=1;" parent="2p8dS12ZbN8FqSJUtTzd-28" vertex="1">
          <mxGeometry y="136" width="180" height="28" as="geometry" />
        </mxCell>
        <mxCell id="2p8dS12ZbN8FqSJUtTzd-33" value="+SupprimerSociete()" style="text;strokeColor=none;fillColor=none;align=left;verticalAlign=top;spacingLeft=4;spacingRight=4;overflow=hidden;rotatable=0;points=[[0,0.5],[1,0.5]];portConstraint=eastwest;whiteSpace=wrap;html=1;" parent="2p8dS12ZbN8FqSJUtTzd-28" vertex="1">
          <mxGeometry y="164" width="180" height="28" as="geometry" />
        </mxCell>
        <mxCell id="2p8dS12ZbN8FqSJUtTzd-34" value="Service" style="swimlane;fontStyle=1;align=center;verticalAlign=top;childLayout=stackLayout;horizontal=1;startSize=26;horizontalStack=0;resizeParent=1;resizeParentMax=0;resizeLast=0;collapsible=1;marginBottom=0;whiteSpace=wrap;html=1;" parent="WIyWlLk6GJQsqaUBKTNV-1" vertex="1">
          <mxGeometry x="-63" y="120" width="180" height="262" as="geometry" />
        </mxCell>
        <mxCell id="2p8dS12ZbN8FqSJUtTzd-35" value="&lt;div&gt;&lt;span style=&quot;font-size: 14px;&quot;&gt;&amp;nbsp; + String _id&lt;/span&gt;&lt;/div&gt;&lt;div&gt;&lt;span style=&quot;font-size: 14px;&quot;&gt;&amp;nbsp; + String serviceName&lt;/span&gt;&lt;/div&gt;&lt;div&gt;&lt;span style=&quot;font-size: 14px;&quot;&gt;&amp;nbsp; + Personnel chef1&lt;/span&gt;&lt;/div&gt;&lt;div&gt;&lt;span style=&quot;font-size: 14px;&quot;&gt;&amp;nbsp; + int poid1&lt;/span&gt;&lt;/div&gt;&lt;div&gt;&lt;span style=&quot;font-size: 14px;&quot;&gt;&amp;nbsp; + Personnel chef2&lt;/span&gt;&lt;/div&gt;&lt;div&gt;&lt;span style=&quot;font-size: 14px;&quot;&gt;&amp;nbsp; + int poid2&lt;/span&gt;&lt;/div&gt;&lt;div&gt;&lt;span style=&quot;font-size: 14px;&quot;&gt;&amp;nbsp; + Personnel chef3&lt;/span&gt;&lt;/div&gt;&lt;div&gt;&lt;span style=&quot;font-size: 14px;&quot;&gt;&amp;nbsp; + int poid3&lt;/span&gt;&lt;/div&gt;" style="text;strokeColor=none;fillColor=none;align=left;verticalAlign=top;spacingLeft=4;spacingRight=4;overflow=hidden;rotatable=0;points=[[0,0.5],[1,0.5]];portConstraint=eastwest;whiteSpace=wrap;html=1;" parent="2p8dS12ZbN8FqSJUtTzd-34" vertex="1">
          <mxGeometry y="26" width="180" height="144" as="geometry" />
        </mxCell>
        <mxCell id="2p8dS12ZbN8FqSJUtTzd-36" value="" style="line;strokeWidth=1;fillColor=none;align=left;verticalAlign=middle;spacingTop=-1;spacingLeft=3;spacingRight=3;rotatable=0;labelPosition=right;points=[];portConstraint=eastwest;strokeColor=inherit;" parent="2p8dS12ZbN8FqSJUtTzd-34" vertex="1">
          <mxGeometry y="170" width="180" height="8" as="geometry" />
        </mxCell>
        <mxCell id="2p8dS12ZbN8FqSJUtTzd-37" value="+Ajouter&lt;span style=&quot;text-align: center;&quot;&gt;Service&lt;/span&gt;()" style="text;strokeColor=none;fillColor=none;align=left;verticalAlign=top;spacingLeft=4;spacingRight=4;overflow=hidden;rotatable=0;points=[[0,0.5],[1,0.5]];portConstraint=eastwest;whiteSpace=wrap;html=1;" parent="2p8dS12ZbN8FqSJUtTzd-34" vertex="1">
          <mxGeometry y="178" width="180" height="28" as="geometry" />
        </mxCell>
        <mxCell id="2p8dS12ZbN8FqSJUtTzd-38" value="+Supprimer&lt;span style=&quot;text-align: center;&quot;&gt;Service&lt;/span&gt;()" style="text;strokeColor=none;fillColor=none;align=left;verticalAlign=top;spacingLeft=4;spacingRight=4;overflow=hidden;rotatable=0;points=[[0,0.5],[1,0.5]];portConstraint=eastwest;whiteSpace=wrap;html=1;" parent="2p8dS12ZbN8FqSJUtTzd-34" vertex="1">
          <mxGeometry y="206" width="180" height="28" as="geometry" />
        </mxCell>
        <mxCell id="2p8dS12ZbN8FqSJUtTzd-45" value="+ModifierService()" style="text;strokeColor=none;fillColor=none;align=left;verticalAlign=top;spacingLeft=4;spacingRight=4;overflow=hidden;rotatable=0;points=[[0,0.5],[1,0.5]];portConstraint=eastwest;whiteSpace=wrap;html=1;" parent="2p8dS12ZbN8FqSJUtTzd-34" vertex="1">
          <mxGeometry y="234" width="180" height="28" as="geometry" />
        </mxCell>
        <mxCell id="2p8dS12ZbN8FqSJUtTzd-39" value="" style="endArrow=diamondThin;endFill=1;endSize=24;html=1;rounded=0;entryX=0.5;entryY=0;entryDx=0;entryDy=0;" parent="WIyWlLk6GJQsqaUBKTNV-1" source="2p8dS12ZbN8FqSJUtTzd-45" target="2p8dS12ZbN8FqSJUtTzd-28" edge="1">
          <mxGeometry width="160" relative="1" as="geometry">
            <mxPoint x="-19" y="361" as="sourcePoint" />
            <mxPoint x="-40" y="585" as="targetPoint" />
          </mxGeometry>
        </mxCell>
        <mxCell id="2p8dS12ZbN8FqSJUtTzd-40" value="&lt;font style=&quot;font-size: 15px;&quot;&gt;appartient à&lt;/font&gt;" style="edgeLabel;html=1;align=center;verticalAlign=middle;resizable=0;points=[];" parent="2p8dS12ZbN8FqSJUtTzd-39" vertex="1" connectable="0">
          <mxGeometry x="-0.1295" y="-3" relative="1" as="geometry">
            <mxPoint as="offset" />
          </mxGeometry>
        </mxCell>
        <mxCell id="2p8dS12ZbN8FqSJUtTzd-41" value="" style="endArrow=none;endFill=1;endSize=24;html=1;rounded=0;exitX=1;exitY=0.5;exitDx=0;exitDy=0;entryX=-0.004;entryY=0.426;entryDx=0;entryDy=0;entryPerimeter=0;startFill=0;" parent="WIyWlLk6GJQsqaUBKTNV-1" edge="1">
          <mxGeometry width="160" relative="1" as="geometry">
            <mxPoint x="117" y="265" as="sourcePoint" />
            <mxPoint x="411" y="267" as="targetPoint" />
          </mxGeometry>
        </mxCell>
        <mxCell id="2p8dS12ZbN8FqSJUtTzd-42" value="&lt;font style=&quot;font-size: 15px;&quot;&gt;rattaché à&lt;/font&gt;" style="edgeLabel;html=1;align=center;verticalAlign=middle;resizable=0;points=[];" parent="2p8dS12ZbN8FqSJUtTzd-41" vertex="1" connectable="0">
          <mxGeometry x="-0.0389" y="2" relative="1" as="geometry">
            <mxPoint as="offset" />
          </mxGeometry>
        </mxCell>
        <mxCell id="gdrjbkYZkWXfZV1019Ey-7" value="&lt;font style=&quot;font-size: 15px;&quot;&gt;0..*&lt;/font&gt;" style="edgeLabel;html=1;align=center;verticalAlign=middle;resizable=0;points=[];" parent="2p8dS12ZbN8FqSJUtTzd-41" vertex="1" connectable="0">
          <mxGeometry x="0.9049" y="-2" relative="1" as="geometry">
            <mxPoint y="11" as="offset" />
          </mxGeometry>
        </mxCell>
        <mxCell id="gdrjbkYZkWXfZV1019Ey-8" value="&lt;font style=&quot;font-size: 15px;&quot;&gt;1&lt;/font&gt;" style="edgeLabel;html=1;align=center;verticalAlign=middle;resizable=0;points=[];" parent="2p8dS12ZbN8FqSJUtTzd-41" vertex="1" connectable="0">
          <mxGeometry x="-0.8573" y="3" relative="1" as="geometry">
            <mxPoint x="-8" y="-12" as="offset" />
          </mxGeometry>
        </mxCell>
        <mxCell id="2p8dS12ZbN8FqSJUtTzd-43" value="" style="endArrow=none;endFill=1;endSize=24;html=1;rounded=0;exitX=0.009;exitY=0.156;exitDx=0;exitDy=0;exitPerimeter=0;entryX=1.009;entryY=0.427;entryDx=0;entryDy=0;entryPerimeter=0;startFill=0;" parent="WIyWlLk6GJQsqaUBKTNV-1" edge="1">
          <mxGeometry width="160" relative="1" as="geometry">
            <mxPoint x="414" y="160" as="sourcePoint" />
            <mxPoint x="119" y="160" as="targetPoint" />
          </mxGeometry>
        </mxCell>
        <mxCell id="2p8dS12ZbN8FqSJUtTzd-44" value="&lt;span style=&quot;font-size: 15px;&quot;&gt;est chef de&lt;/span&gt;" style="edgeLabel;html=1;align=center;verticalAlign=middle;resizable=0;points=[];" parent="2p8dS12ZbN8FqSJUtTzd-43" vertex="1" connectable="0">
          <mxGeometry x="0.0074" y="-3" relative="1" as="geometry">
            <mxPoint x="5" y="8" as="offset" />
          </mxGeometry>
        </mxCell>
        <mxCell id="gdrjbkYZkWXfZV1019Ey-2" value="&lt;font style=&quot;font-size: 15px;&quot;&gt;0..3&lt;/font&gt;" style="edgeLabel;html=1;align=center;verticalAlign=middle;resizable=0;points=[];" parent="2p8dS12ZbN8FqSJUtTzd-43" vertex="1" connectable="0">
          <mxGeometry x="-0.8915" y="2" relative="1" as="geometry">
            <mxPoint x="2" y="-12" as="offset" />
          </mxGeometry>
        </mxCell>
        <mxCell id="gdrjbkYZkWXfZV1019Ey-3" value="&lt;font style=&quot;font-size: 15px;&quot;&gt;0..*&lt;/font&gt;" style="text;html=1;align=center;verticalAlign=middle;resizable=0;points=[];autosize=1;strokeColor=none;fillColor=none;" parent="WIyWlLk6GJQsqaUBKTNV-1" vertex="1">
          <mxGeometry x="110" y="130" width="50" height="30" as="geometry" />
        </mxCell>
        <mxCell id="gdrjbkYZkWXfZV1019Ey-9" value="&lt;font style=&quot;font-size: 15px;&quot;&gt;1..*&lt;/font&gt;" style="text;html=1;align=center;verticalAlign=middle;resizable=0;points=[];autosize=1;strokeColor=none;fillColor=none;" parent="WIyWlLk6GJQsqaUBKTNV-1" vertex="1">
          <mxGeometry x="20" y="382" width="50" height="30" as="geometry" />
        </mxCell>
        <mxCell id="gdrjbkYZkWXfZV1019Ey-10" value="&lt;font style=&quot;font-size: 15px;&quot;&gt;1&lt;/font&gt;" style="text;html=1;align=center;verticalAlign=middle;resizable=0;points=[];autosize=1;strokeColor=none;fillColor=none;" parent="WIyWlLk6GJQsqaUBKTNV-1" vertex="1">
          <mxGeometry x="150" y="420" width="30" height="30" as="geometry" />
        </mxCell>
      </root>
    </mxGraphModel>
  </diagram>
</mxfile>
